# xmcd
#
# Track frame offsets:
#	150
#	11683
#	20780
#	34015
#	42980
#	52725
#	61735
#	69273
#	77918
#	90135
#	100648
#	109703
#	121833
#	134788
#	147365
#	157823
#	168413
#	178355
#	191878
#	204918
#
# Disc length: 2872 seconds
#
# Revision: 1
# Processed by: cddbd v1.4PL0 Copyright (c) Steve Scherf et al.
# Submitted via: audiograbber 1.80.04
#
DISCID=070b3614
DTITLE=Mac Davis - Vol.XC-Lowers
DYEAR=1900
DGENRE=Country
TTITLE0=Sweet Sweet
TTITLE1=Boy's  Ain't Supposed To Cry
TTITLE2=Little Dutch  Town
TTITLE3=Be A Good Little Girl While I'm Gone
TTITLE4=Let "Em Try
TTITLE5=pick of the week
TTITLE6=weep little girl weep
TTITLE7=don't say no
TTITLE8=i wish i had said that
TTITLE9=work
TTITLE10=why cant i be like the others
TTITLE11=a man don't cry
TTITLE12=once was the time of man
TTITLE13=standing in the need of love
TTITLE14=hey monkey
TTITLE15=honey love
TTITLE16=lookin' at linda
TTITLE17=you're riding for a fall
TTITLE18=poor loser
TTITLE19=with a little touch of love
EXTD=
EXTT0=
EXTT1=
EXTT2=
EXTT3=
EXTT4=
EXTT5=
EXTT6=
EXTT7=
EXTT8=
EXTT9=
EXTT10=
EXTT11=
EXTT12=
EXTT13=
EXTT14=
EXTT15=
EXTT16=
EXTT17=
EXTT18=
EXTT19=
PLAYORDER=
